M48
;DRILL file {Pcbnew (2013-jul-07)-stable} date Mi 20 Mai 2015 08:39:14 CEST
;FORMAT={-:-/ absolute / metric / decimal}
FMAT,2
METRIC,TZ
T1C0.508
T2C0.686
T3C0.813
T4C1.016
T5C2.301
T6C2.499
T7C3.500
%
G90
G05
M71
T1
X104.14Y92.73
X104.14Y95.23
T2
X107.95Y109.22
X113.03Y101.6
X113.03Y104.14
X113.03Y106.68
X115.57Y109.22
X116.84Y91.567
X116.84Y93.599
X118.11Y109.22
X119.38Y91.567
X119.38Y93.599
X120.65Y99.06
X120.65Y106.68
X123.19Y99.06
X123.19Y101.6
X123.19Y104.14
X123.19Y106.68
X125.73Y96.52
X125.73Y104.14
X128.27Y86.36
X128.27Y88.9
X128.27Y96.52
X128.27Y104.14
X128.27Y109.22
X130.81Y96.52
X130.81Y104.14
X130.81Y116.84
X133.35Y96.52
X133.35Y104.14
X133.35Y106.68
X133.35Y111.76
X133.35Y116.84
X135.89Y92.71
X135.89Y96.52
X135.89Y104.14
X138.43Y86.36
X138.43Y88.9
X138.43Y92.71
X138.43Y96.52
X138.43Y104.14
X138.43Y106.68
X138.43Y111.76
X138.43Y116.84
X140.97Y82.55
X140.97Y92.71
X140.97Y96.52
X140.97Y104.14
X140.97Y106.68
X140.97Y116.84
X143.51Y96.52
X143.51Y104.14
X146.05Y96.52
X146.05Y104.14
X148.59Y96.52
X148.59Y104.14
X151.13Y96.52
X151.13Y104.14
X153.67Y91.44
X153.67Y96.52
X153.67Y104.14
X153.67Y109.22
X154.94Y88.9
X154.94Y111.76
X156.21Y91.44
X156.21Y96.52
X156.21Y104.14
X156.21Y109.22
X157.48Y88.9
X157.48Y111.76
X158.75Y91.44
X158.75Y96.52
X158.75Y104.14
X158.75Y109.22
X160.02Y88.9
X160.02Y111.76
X161.29Y91.44
X161.29Y109.22
X162.56Y88.9
X162.56Y111.76
X163.83Y91.44
X163.83Y101.6
X163.83Y104.14
X163.83Y109.22
X173.99Y101.6
X173.99Y104.14
T3
X128.27Y111.76
X128.27Y119.38
T4
X120.65Y116.84
X123.19Y116.84
X125.73Y116.84
X179.07Y97.79
X179.07Y100.33
X179.07Y102.87
X181.61Y97.79
X181.61Y100.33
X181.61Y102.87
T5
X112.111Y88.9
X124.109Y88.9
T6
X107.5Y84.8
X107.5Y115.199
X178.699Y84.8
X178.699Y115.199
T7
X146.251Y90.439
X146.251Y110.221
X171.249Y90.439
X171.249Y110.221
T0
M30
